<svg xmlns="http://www.w3.org/2000/svg" viewBox="0 0 24 24">
  <path fill="#25D366" d="M20.52 3.48a11.87 11.87 0 0 0-8.45-3.48C5.064 0 0 5.063 0 11.31c0 2.022.544 3.999 1.588 5.73L0 24l7.065-1.86a11.29 11.29 0 0 0 5.002 1.191h.006c6.246 0 11.31-5.063 11.31-11.31 0-3.019-1.178-5.857-3.352-8.02z"/>
  <path fill="#fff" d="M17.472 14.382c-.297-.149-1.758-.867-2.026-.967-.268-.099-.464-.148-.661.149-.198.297-.759.967-.931 1.165-.173.199-.347.223-.644.074-.297-.149-1.255-.462-2.39-1.475-.883-.788-1.479-1.761-1.653-2.059-.173-.297-.018-.458.13-.606.134-.133.297-.347.446-.52.149-.174.198-.298.297-.497.099-.198.05-.372-.025-.521-.074-.149-.661-1.589-.906-2.181-.237-.569-.48-.492-.661-.502-.171-.01-.372-.012-.572-.012a1.1 1.1 0 0 0-.8.372C4.64 8.64 4.07 9.83 4.07 11.07c0 1.242.916 2.444 1.042 2.61.124.165 1.803 2.75 4.354 3.85.608.262 1.082.418 1.45.535.609.194 1.16.167 1.597.101.487-.072 1.758-.719 2.006-1.413.248-.694.248-1.288.173-1.413-.074-.124-.272-.198-.57-.347z"/>
</svg>
