<svg xmlns="http://www.w3.org/2000/svg" viewBox="0 0 24 24">
  <circle cx="12" cy="12" r="12" fill="#25D366"/>
  <path d="M17.5 14.5c-0.3-0.2-1.8-0.9-2.1-1-0.3-0.1-0.5-0.2-0.7 0.2s-0.8 1-1 1.2-0.4 0.3-0.7 0.1c-0.4-0.2-1.6-0.6-3-1.9-1.1-1-1.9-2.2-2.1-2.6s0-0.5 0.2-0.7c0.2-0.2 0.4-0.5 0.6-0.7s0.3-0.4 0.4-0.6c0.1-0.2 0-0.4 0-0.6-0.1-0.2-0.7-1.7-1-2.3-0.3-0.6-0.5-0.5-0.7-0.5s-0.4-0.1-0.6-0.1-0.6 0.1-0.9 0.4c-0.3 0.3-1.1 1.1-1.1 2.6s1.1 3 1.2 3.2c0.1 0.2 2.2 3.4 5.3 4.8 0.7 0.3 1.2 0.5 1.6 0.6 0.7 0.2 1.3 0.2 1.8 0.1 0.6-0.1 1.8-0.7 2.1-1.3 0.3-0.6 0.3-1.2 0.2-1.3-0.1-0.1-0.3-0.2-0.6-0.3z" fill="#fff"/>
</svg>
